<svg xmlns="http://www.w3.org/2000/svg" viewBox="0 0 1145.97 1200.05"><defs><style>.cls-1{fill:#905eae;}</style></defs><g id="Layer_2" data-name="Layer 2"><g id="Layer_1-2" data-name="Layer 1"><g id="Icon_Template" data-name="Icon Template"><g id="Group_16" data-name="Group 16"><path id="Path_2" data-name="Path 2" class="cls-1" d="M732.21,993.14A308.92,308.92,0,0,0,783.85,976c56.12-24.33,91.89-61.16,110.23-79.6a421.59,421.59,0,0,0,79.67-111.66,87,87,0,0,1,65.28-47.7c2-.27,4.12-.63,6.21-1,68.82-11.56,122.35,59.42,92.07,122.71a600.43,600.43,0,0,1-116.54,165.08c-235.68,236.94-619,234.94-852.21-6C-60.32,781.35-55.4,399.21,179,168.41A594.12,594.12,0,0,1,531,.54c46.85-5.27,89.75,28.85,94.58,76,.51,4.62.87,9.3,1.1,14,2.26,45.06-31.34,84.2-76,89.23-96.76,10.8-190.39,55.39-262,133.58-149.32,163.33-145.77,419.09,7.9,578.38C336,932.52,379,958.41,395.36,967.6c99.71,55.9,196.29,57.94,242.9,55.72,12.76,16.68,30.62,34.44,55.13,47.62,94.26,50.66,202.1-12.29,212.23-18.42-8,3.36-65.62,26.27-121.08-4.86C754.24,1030.67,738.72,1005.5,732.21,993.14Z"/><g id="Group_1" data-name="Group 1"><circle id="Ellipse_1" data-name="Ellipse 1" class="cls-1" cx="720.55" cy="578.76" r="31.49"/><circle id="Ellipse_2" data-name="Ellipse 2" class="cls-1" cx="591.87" cy="578.76" r="31.49"/><circle id="Ellipse_3" data-name="Ellipse 3" class="cls-1" cx="463.2" cy="578.76" r="31.49"/></g></g></g></g></g></svg>