<svg id="Layer_1" data-name="Layer 1" xmlns="http://www.w3.org/2000/svg" viewBox="0 0 3821 1385"><defs><style>.cls-1,.cls-2{isolation:isolate;}.cls-2{font-size:900px;font-family:ArialRoundedMTBold, Arial Rounded MT Bold;}.cls-2,.cls-6{fill:#905eae;}.cls-3{letter-spacing:-0.03em;}.cls-4{letter-spacing:-0.02em;}.cls-5{fill:none;}</style></defs><g id="rcles" class="cls-1"><text class="cls-2" transform="translate(1423.39 1252.47)"><tspan class="cls-3">r</tspan><tspan class="cls-4" x="370.9" y="0">c</tspan><tspan x="883.3" y="0">les</tspan></text></g><g id="Icon_Template" data-name="Icon Template"><g id="Template"><rect id="BG" class="cls-5" x="54.39" y="-93.03" width="1536" height="1536"/></g><g id="Group_16" data-name="Group 16"><path id="Path_2" data-name="Path 2" class="cls-6" d="M954.61,1069.09a308.32,308.32,0,0,0,51.64-17.13c56.12-24.33,91.89-61.16,110.23-79.6a421.36,421.36,0,0,0,79.67-111.66A87,87,0,0,1,1261.43,813c2-.27,4.12-.63,6.21-1,68.82-11.56,122.35,59.42,92.07,122.71a600.07,600.07,0,0,1-116.54,165.08c-235.68,236.94-619,234.94-852.21-6C162.08,857.3,167,475.16,401.42,244.36a594.2,594.2,0,0,1,352-167.87c46.85-5.27,89.75,28.85,94.58,76,.51,4.62.87,9.3,1.1,14,2.26,45.06-31.34,84.2-76,89.23-96.76,10.8-190.39,55.39-262,133.58C361.78,552.63,365.33,808.39,519,967.68c39.37,40.79,82.36,66.68,98.76,75.87,99.71,55.9,196.29,57.94,242.9,55.72,12.76,16.68,30.62,34.44,55.13,47.62,94.26,50.66,202.1-12.29,212.23-18.42-8,3.36-65.62,26.27-121.08-4.86C976.64,1106.62,961.12,1081.45,954.61,1069.09Z"/><g id="Group_1" data-name="Group 1"><circle id="Ellipse_1" data-name="Ellipse 1" class="cls-6" cx="942.95" cy="654.71" r="31.49"/><circle id="Ellipse_2" data-name="Ellipse 2" class="cls-6" cx="814.27" cy="654.71" r="31.49"/><circle id="Ellipse_3" data-name="Ellipse 3" class="cls-6" cx="685.6" cy="654.71" r="31.49"/></g><circle id="Ellipse_4" data-name="Ellipse 4" class="cls-6" cx="1390.67" cy="674.95" r="89.71"/></g></g></svg>